<?xml version="1.0" encoding="UTF-8"?>
<svg version="1.1" xmlns="http://www.w3.org/2000/svg" width="557" height="448">
<path d="M0 0 C183.81 0 367.62 0 557 0 C557 147.84 557 295.68 557 448 C373.19 448 189.38 448 0 448 C0 300.16 0 152.32 0 0 Z " fill="#FEFEFE" transform="translate(0,0)"/>
<path d="M0 0 C3.78748035 0.31783052 5.37380245 2.26096906 7.75488281 5.05078125 C8.22764648 5.61152344 8.70041016 6.17226563 9.1875 6.75 C13.93590276 12.14056771 19.02191079 16.66889843 24.75 21 C25.44633545 21.5269043 26.1426709 22.05380859 26.86010742 22.59667969 C32.62579117 26.87059091 38.53716871 30.85611303 45 34 C45 34.66 45 35.32 45 36 C45.70125 36.103125 46.4025 36.20625 47.125 36.3125 C50.39137647 37.09359003 53.0471852 38.42058743 56 40 C56 40.66 56 41.32 56 42 C56.68707031 42.27070312 57.37414062 42.54140625 58.08203125 42.8203125 C61.30590392 44.123672 64.49556859 45.49528497 67.6875 46.875 C77.99120825 51.30178829 88.35813935 55.44730154 99 59 C100.85044922 59.62068359 100.85044922 59.62068359 102.73828125 60.25390625 C112.72299335 63.3934671 122.93011568 65.14048355 133.25 66.75 C133.91472321 66.85691162 134.57944641 66.96382324 135.26431274 67.07397461 C147.46800901 69.01257918 159.65895223 69.60528233 172 70 C172.05121737 76.31303392 172.08594785 82.62601316 172.10986328 88.93920898 C172.11984606 91.08148196 172.13343702 93.22374157 172.15087891 95.3659668 C172.31805776 116.44525317 172.31805776 116.44525317 170.46337891 126.39672852 C169.78246085 130.2221391 169.70896397 133.99930937 169.625 137.875 C168.95013139 155.91126417 166.27215374 174.08583943 162.9375 191.8125 C162.78756592 192.61034912 162.63763184 193.40819824 162.4831543 194.23022461 C161.67960423 198.26605158 160.67654022 202.16938758 159.4609375 206.1015625 C158.18522639 210.22956734 157.35391834 214.28744903 156.6875 218.5625 C155.64217288 224.66024151 154.0537481 230.41498739 152 236.25 C151.62621216 237.32229858 151.62621216 237.32229858 151.24487305 238.41625977 C149.90341191 242.08450306 148.36210209 244.92251843 146 248 C145.40325596 250.07699945 145.40325596 250.07699945 145.125 252.25 C144.28926825 256.58580488 142.6537826 259.5909368 140.12109375 263.17578125 C138.93121004 265.11193349 138.43585506 266.78154669 138 269 C137.34 269 136.68 269 136 269 C135.34 271.64 134.68 274.28 134 277 C133.34 277 132.68 277 132 277 C131.77054687 277.81855469 131.54109375 278.63710938 131.3046875 279.48046875 C129.71093309 283.77978829 127.53960993 287.42964873 125.125 291.3125 C124.39796875 292.48848755 124.39796875 292.48848755 123.65625 293.68823242 C112.79883168 311.05488182 100.72302951 326.72921372 86 341 C83.55013087 343.43455744 81.11595576 345.88048246 78.7109375 348.359375 C58.60751359 368.93344763 33.51493995 384.48842019 8.3671875 398.13671875 C5.24729955 399.66058969 5.24729955 399.66058969 4 401 C-0.439577 401.34129347 -3.17299585 400.76834041 -7.046875 398.62109375 C-8.4390625 397.85635742 -8.4390625 397.85635742 -9.859375 397.07617188 C-11.29023438 396.2650293 -11.29023438 396.2650293 -12.75 395.4375 C-13.6884375 394.92380859 -14.626875 394.41011719 -15.59375 393.88085938 C-22.02979627 390.30280879 -28.02274454 386.2908721 -34 382 C-36.0412963 380.62445022 -38.08291252 379.24937495 -40.125 377.875 C-64.78155332 360.98131787 -86.00211245 339.73677991 -104 316 C-104.80244141 314.96746094 -104.80244141 314.96746094 -105.62109375 313.9140625 C-114.84899761 301.94131471 -123.27324641 288.94393788 -129.82421875 275.32421875 C-130.98976566 272.93834019 -130.98976566 272.93834019 -132.5234375 270.53515625 C-134.01382963 267.97625548 -134.98408863 265.5488557 -135.9375 262.75 C-137.12901318 259.36430405 -138.36826344 256.06980185 -139.875 252.8125 C-144.60253459 242.38958909 -148.28674369 231.64412806 -151.23828125 220.59765625 C-151.74729605 218.09284832 -151.74729605 218.09284832 -153 217 C-153.47934173 214.73762917 -153.90620333 212.46412322 -154.3125 210.1875 C-155.28694762 204.79121479 -156.31732097 199.41377058 -157.43676758 194.0456543 C-161.69707159 173.45037674 -164.50236461 152.87726409 -165.76635742 131.88232422 C-165.94250415 129.70929575 -166.20896895 127.54331717 -166.51855469 125.38525391 C-167.20579063 120.02524715 -167.12411821 114.67690918 -167.09765625 109.28125 C-167.0962413 108.18276733 -167.09482635 107.08428467 -167.09336853 105.95251465 C-167.08780257 102.46831457 -167.07525639 98.98418042 -167.0625 95.5 C-167.0574806 93.1276051 -167.05291846 90.75520918 -167.04882812 88.3828125 C-167.0378443 82.58851944 -167.0211403 76.79426443 -167 71 C-165.2521521 70.92108521 -165.2521521 70.92108521 -163.46899414 70.84057617 C-154.7040152 70.41788717 -146.09044381 69.84969473 -137.4375 68.3125 C-136.44790283 68.14169922 -135.45830566 67.97089844 -134.4387207 67.79492188 C-126.80148618 66.42823993 -119.23741348 64.78386707 -111.6875 63 C-110.68066162 62.76321533 -109.67382324 62.52643066 -108.63647461 62.2824707 C-97.46947879 59.54525263 -87.06129357 55.2827483 -76.56835938 50.6484375 C-75.77365234 50.30554688 -74.97894531 49.96265625 -74.16015625 49.609375 C-73.45511963 49.29967773 -72.75008301 48.98998047 -72.02368164 48.67089844 C-70 48 -70 48 -66 48 C-66 47.34 -66 46.68 -66 46 C-65.44763672 45.74943848 -64.89527344 45.49887695 -64.32617188 45.24072266 C-45.23226509 36.52032819 -28.9547685 26.64189284 -13 13 C-12.05511719 12.19820312 -11.11023438 11.39640625 -10.13671875 10.5703125 C-6.35972549 7.29403357 -2.93531078 4.08391065 0 0 Z " fill="#171F40" transform="translate(277,20)"/>
<path d="M0 0 C3.78748035 0.31783052 5.37380245 2.26096906 7.75488281 5.05078125 C8.22764648 5.61152344 8.70041016 6.17226563 9.1875 6.75 C13.93590276 12.14056771 19.02191079 16.66889843 24.75 21 C25.44633545 21.5269043 26.1426709 22.05380859 26.86010742 22.59667969 C32.62579117 26.87059091 38.53716871 30.85611303 45 34 C45 34.66 45 35.32 45 36 C45.70125 36.103125 46.4025 36.20625 47.125 36.3125 C50.39137647 37.09359003 53.0471852 38.42058743 56 40 C56 40.66 56 41.32 56 42 C56.68707031 42.27070312 57.37414062 42.54140625 58.08203125 42.8203125 C61.30590392 44.123672 64.49556859 45.49528497 67.6875 46.875 C77.99120825 51.30178829 88.35813935 55.44730154 99 59 C100.85044922 59.62068359 100.85044922 59.62068359 102.73828125 60.25390625 C112.72299335 63.3934671 122.93011568 65.14048355 133.25 66.75 C133.91472321 66.85691162 134.57944641 66.96382324 135.26431274 67.07397461 C147.46800901 69.01257918 159.65895223 69.60528233 172 70 C172.05121737 76.31303392 172.08594785 82.62601316 172.10986328 88.93920898 C172.11984606 91.08148196 172.13343702 93.22374157 172.15087891 95.3659668 C172.31805776 116.44525317 172.31805776 116.44525317 170.46337891 126.39672852 C169.78246085 130.2221391 169.70896397 133.99930937 169.625 137.875 C168.95013139 155.91126417 166.27215374 174.08583943 162.9375 191.8125 C162.78756592 192.61034912 162.63763184 193.40819824 162.4831543 194.23022461 C161.67960423 198.26605158 160.67654022 202.16938758 159.4609375 206.1015625 C158.18522639 210.22956734 157.35391834 214.28744903 156.6875 218.5625 C155.64217288 224.66024151 154.0537481 230.41498739 152 236.25 C151.62621216 237.32229858 151.62621216 237.32229858 151.24487305 238.41625977 C149.90341191 242.08450306 148.36210209 244.92251843 146 248 C145.40325596 250.07699945 145.40325596 250.07699945 145.125 252.25 C144.28926825 256.58580488 142.6537826 259.5909368 140.12109375 263.17578125 C138.93121004 265.11193349 138.43585506 266.78154669 138 269 C137.34 269 136.68 269 136 269 C135.34 271.64 134.68 274.28 134 277 C133.34 277 132.68 277 132 277 C131.77054687 277.81855469 131.54109375 278.63710938 131.3046875 279.48046875 C129.71093309 283.77978829 127.53960993 287.42964873 125.125 291.3125 C124.39796875 292.48848755 124.39796875 292.48848755 123.65625 293.68823242 C112.79883168 311.05488182 100.72302951 326.72921372 86 341 C83.55013087 343.43455744 81.11595576 345.88048246 78.7109375 348.359375 C58.60751359 368.93344763 33.51493995 384.48842019 8.3671875 398.13671875 C5.24729955 399.66058969 5.24729955 399.66058969 4 401 C-0.439577 401.34129347 -3.17299585 400.76834041 -7.046875 398.62109375 C-8.4390625 397.85635742 -8.4390625 397.85635742 -9.859375 397.07617188 C-11.29023438 396.2650293 -11.29023438 396.2650293 -12.75 395.4375 C-13.6884375 394.92380859 -14.626875 394.41011719 -15.59375 393.88085938 C-22.02979627 390.30280879 -28.02274454 386.2908721 -34 382 C-36.0412963 380.62445022 -38.08291252 379.24937495 -40.125 377.875 C-64.78155332 360.98131787 -86.00211245 339.73677991 -104 316 C-104.80244141 314.96746094 -104.80244141 314.96746094 -105.62109375 313.9140625 C-114.84899761 301.94131471 -123.27324641 288.94393788 -129.82421875 275.32421875 C-130.98976566 272.93834019 -130.98976566 272.93834019 -132.5234375 270.53515625 C-134.01382963 267.97625548 -134.98408863 265.5488557 -135.9375 262.75 C-137.12901318 259.36430405 -138.36826344 256.06980185 -139.875 252.8125 C-144.60253459 242.38958909 -148.28674369 231.64412806 -151.23828125 220.59765625 C-151.74729605 218.09284832 -151.74729605 218.09284832 -153 217 C-153.47934173 214.73762917 -153.90620333 212.46412322 -154.3125 210.1875 C-155.28694762 204.79121479 -156.31732097 199.41377058 -157.43676758 194.0456543 C-161.69707159 173.45037674 -164.50236461 152.87726409 -165.76635742 131.88232422 C-165.94250415 129.70929575 -166.20896895 127.54331717 -166.51855469 125.38525391 C-167.20579063 120.02524715 -167.12411821 114.67690918 -167.09765625 109.28125 C-167.0962413 108.18276733 -167.09482635 107.08428467 -167.09336853 105.95251465 C-167.08780257 102.46831457 -167.07525639 98.98418042 -167.0625 95.5 C-167.0574806 93.1276051 -167.05291846 90.75520918 -167.04882812 88.3828125 C-167.0378443 82.58851944 -167.0211403 76.79426443 -167 71 C-165.2521521 70.92108521 -165.2521521 70.92108521 -163.46899414 70.84057617 C-154.7040152 70.41788717 -146.09044381 69.84969473 -137.4375 68.3125 C-136.44790283 68.14169922 -135.45830566 67.97089844 -134.4387207 67.79492188 C-126.80148618 66.42823993 -119.23741348 64.78386707 -111.6875 63 C-110.68066162 62.76321533 -109.67382324 62.52643066 -108.63647461 62.2824707 C-97.46947879 59.54525263 -87.06129357 55.2827483 -76.56835938 50.6484375 C-75.77365234 50.30554688 -74.97894531 49.96265625 -74.16015625 49.609375 C-73.45511963 49.29967773 -72.75008301 48.98998047 -72.02368164 48.67089844 C-70 48 -70 48 -66 48 C-66 47.34 -66 46.68 -66 46 C-65.44763672 45.74943848 -64.89527344 45.49887695 -64.32617188 45.24072266 C-45.23226509 36.52032819 -28.9547685 26.64189284 -13 13 C-12.05511719 12.19820312 -11.11023438 11.39640625 -10.13671875 10.5703125 C-6.35972549 7.29403357 -2.93531078 4.08391065 0 0 Z M-5.625 22.25 C-18.72003684 34.75184286 -34.66427274 45.18908671 -51 53 C-51 53.66 -51 54.32 -51 55 C-51.87011719 55.10570312 -52.74023438 55.21140625 -53.63671875 55.3203125 C-57.15764241 56.03185805 -59.65964634 57.17828357 -62.8125 58.875 C-67.10349597 61.10291489 -71.2244708 62.92352394 -75.8671875 64.26171875 C-78.15889755 64.99862267 -78.15889755 64.99862267 -80.78515625 66.43359375 C-84.29401602 68.14325689 -87.82318284 69.30801742 -91.5625 70.375 C-92.29210937 70.58560059 -93.02171875 70.79620117 -93.7734375 71.01318359 C-113.91858057 76.72238485 -134.21348784 80.62200063 -155 83 C-155.77389524 106.01743041 -153.66378931 128.57715277 -151.26428223 151.44024658 C-150.99669303 154.03203026 -150.74252132 156.62485282 -150.49121094 159.21826172 C-150.32491291 160.89421001 -150.15857343 162.57015419 -149.9921875 164.24609375 C-149.92178253 164.99617203 -149.85137756 165.74625031 -149.77883911 166.51905823 C-149.31286333 171.12505454 -148.51420079 175.55317584 -147.44381714 180.05786133 C-146.87579695 182.54351112 -146.55931727 185.03272663 -146.25 187.5625 C-144.06231117 202.28599306 -140.04327221 217.01238787 -135 231 C-134.46767064 232.57732329 -133.93797621 234.15553701 -133.41015625 235.734375 C-130.51951051 244.3042516 -127.53829317 252.50144816 -123.2890625 260.5 C-121.53156084 263.90848806 -120.25320968 267.37961649 -119 271 C-118.34 271 -117.68 271 -117 271 C-116.75378906 271.83273437 -116.50757813 272.66546875 -116.25390625 273.5234375 C-114.82732551 277.47875482 -113.00720635 280.97610595 -110.9375 284.625 C-110.53756836 285.33011719 -110.13763672 286.03523438 -109.72558594 286.76171875 C-105.97428359 293.24632297 -101.691634 299.15924504 -97 305 C-96.51515137 305.60811523 -96.03030273 306.21623047 -95.53076172 306.84277344 C-92.26569537 310.93352385 -88.96276466 314.99102069 -85.62890625 319.02587891 C-84.58326784 320.29311995 -83.54127134 321.56337988 -82.50390625 322.83740234 C-71.08699779 336.84167928 -58.02556365 348.93539796 -43.59667969 359.78857422 C-42.10257428 360.92217529 -40.63230286 362.08699897 -39.1640625 363.25390625 C-30.69481168 369.88459421 -21.53482765 375.31598535 -12.23193359 380.68994141 C-10.83177197 381.51178206 -9.44618518 382.35956318 -8.08447266 383.24365234 C-3.82388813 385.94673146 -0.99073386 386.39629069 4 386 C7.03858885 384.8072073 7.03858885 384.8072073 9.921875 382.9921875 C11.02080078 382.34193604 12.11972656 381.69168457 13.25195312 381.02172852 C14.41867239 380.30730018 15.58467371 379.59169821 16.75 378.875 C17.95761229 378.14563604 19.16529528 377.41638912 20.37304688 376.68725586 C30.70453295 370.39429539 40.48777194 363.47424552 50 356 C51.01578125 355.21496094 52.0315625 354.42992187 53.078125 353.62109375 C67.42008343 342.23559166 81.27620635 329.06855238 93 315 C93.61230469 314.26523437 94.22460938 313.53046875 94.85546875 312.7734375 C103.15133413 302.6064488 110.5336532 292.0905378 117.125 280.75 C117.61073486 279.9154126 118.09646973 279.0808252 118.59692383 278.22094727 C121.0789575 274.34277031 121.0789575 274.34277031 122 270 C122.66 270 123.32 270 124 270 C124.30292969 269.24976563 124.60585938 268.49953125 124.91796875 267.7265625 C125.33691406 266.70304688 125.75585938 265.67953125 126.1875 264.625 C126.59355469 263.62726563 126.99960937 262.62953125 127.41796875 261.6015625 C128.65683992 258.78121876 129.97656465 256.10528491 131.3984375 253.37890625 C134.3403401 247.54443424 136.41256455 241.51518283 138.4375 235.3125 C138.82365479 234.14074219 139.20980957 232.96898437 139.60766602 231.76171875 C144.14426468 217.77914214 148.15986958 203.65091325 150.55493164 189.13476562 C151 187 151 187 152 186 C152.36162341 183.54536715 152.66741889 181.10576769 152.9375 178.640625 C153.02249756 177.89923279 153.10749512 177.15784058 153.19506836 176.39398193 C153.46748358 174.01310044 153.73409599 171.63161679 154 169.25 C154.26666317 166.88276267 154.5345939 164.51568533 154.80493164 162.14886475 C154.97310531 160.67439615 155.13905837 159.19967212 155.30249023 157.72467041 C155.71309774 154.10363353 156.2664035 150.56765514 157 147 C159.68230806 125.77295901 159.22025709 104.34460671 159 83 C158.26064209 82.92483154 157.52128418 82.84966309 156.75952148 82.7722168 C134.7603599 80.50812572 115.07307248 76.63824483 93.99731445 69.93969727 C91.20162041 69.06321063 88.39734432 68.2267531 85.5859375 67.40234375 C81.93909579 66.31530086 78.4386472 65.06439859 74.9375 63.5625 C74.01839844 63.17191406 73.09929687 62.78132813 72.15234375 62.37890625 C71.11207031 61.92386719 70.07179688 61.46882813 69 61 C68.3201001 60.70528809 67.6402002 60.41057617 66.93969727 60.10693359 C44.15225608 50.13233332 22.2408621 37.14435382 5.12890625 18.90625 C0.46053617 14.72613147 -2.11238092 18.76196712 -5.625 22.25 Z " fill="#23214A" transform="translate(277,20)"/>
<path d="M0 0 C1.20712646 0.00604248 2.41425293 0.01208496 3.65795898 0.01831055 C11.73057425 0.10552207 19.76385248 0.43589732 27.8125 1.0625 C28.75577148 1.13243164 29.69904297 1.20236328 30.67089844 1.27441406 C37.27372279 1.86525503 43.41287562 3.32383866 49.75 5.25 C49.75 6.24 49.75 7.23 49.75 8.25 C48.574375 8.62125 47.39875 8.9925 46.1875 9.375 C40.24208827 11.63489007 35.90875045 14.69109276 33.25 20.5625 C32.5573961 25.67045379 32.14412455 30.42439472 34.7734375 35.05078125 C39.4873405 40.54125208 46.77779524 41.85030067 53.69882202 42.54672241 C56.79542709 42.68760541 59.88075312 42.74301157 62.98046875 42.76171875 C64.09690262 42.77966995 65.21333649 42.79762115 66.36360168 42.81611633 C69.88819737 42.86978771 73.41266106 42.90397604 76.9375 42.9375 C79.34441924 42.97071118 81.75132116 43.00520428 84.15820312 43.04101562 C90.02201687 43.12548886 95.88584866 43.19401914 101.75 43.25 C101.60569915 44.68867604 101.45697696 46.12690907 101.30639648 47.56494141 C101.22405258 48.3659024 101.14170868 49.1668634 101.05686951 49.99209595 C100.68353958 52.73900673 99.90344737 55.0808284 98.8125 57.625 C98.30396484 58.84316406 98.30396484 58.84316406 97.78515625 60.0859375 C96.75 62.25 96.75 62.25 94.75 65.25 C92.05587211 65.55194464 89.57976392 65.66695205 86.8828125 65.65625 C86.09284882 65.66708618 85.30288513 65.67792236 84.48898315 65.68908691 C81.95090742 65.72342616 79.41327746 65.73893053 76.875 65.75 C54.78382278 65.81540914 54.78382278 65.81540914 35.65625 75.9921875 C28.39127089 84.59701932 28.33572717 102.50032294 26.69140625 113.2421875 C26.04968438 117.4137061 25.35418878 121.56497463 24.54663086 125.70751953 C23.46674898 131.25887523 22.50990911 136.78204754 21.8046875 142.39453125 C20.89923204 149.40561827 19.72635695 156.35151656 18.5 163.3125 C15.78072168 179.07686704 13.76896213 194.92502271 11.80566406 210.79907227 C11.68372177 211.76922272 11.56177948 212.73937317 11.43614197 213.73892212 C11.20719492 215.56195503 10.9827335 217.38555935 10.76368713 219.20980835 C10.15060461 224.07036531 9.22997839 228.57752494 7.75 233.25 C7.42 233.25 7.09 233.25 6.75 233.25 C6.32648275 230.18475753 5.90313533 227.11949174 5.47998047 224.05419922 C5.11598475 221.41776938 4.75173486 218.78137573 4.38720703 216.14501953 C3.54314148 210.03557944 2.70316911 203.9257084 1.88671875 197.8125 C0.50468052 187.15304906 0.50468052 187.15304906 -1.3125 176.5625 C-2.21699913 171.91499229 -2.67326204 167.27031344 -3.125 162.5625 C-4.05362329 152.99507104 -5.60652365 143.56892355 -7.25 134.1015625 C-7.95431865 130.04393307 -8.60560362 125.9819628 -9.22265625 121.91015625 C-10.28364821 114.94383833 -11.46465171 108.0020694 -12.6875 101.0625 C-12.89181641 99.86947266 -13.09613281 98.67644531 -13.30664062 97.44726562 C-14.86868703 85.03590093 -14.86868703 85.03590093 -20.9375 74.75 C-21.700625 74.255 -22.46375 73.76 -23.25 73.25 C-23.25 72.59 -23.25 71.93 -23.25 71.25 C-24.60347689 70.78963371 -25.957827 70.33183463 -27.3125 69.875 C-28.06660156 69.61976563 -28.82070312 69.36453125 -29.59765625 69.1015625 C-30.47292969 68.82054687 -31.34820312 68.53953125 -32.25 68.25 C-33.27182373 67.90807617 -34.29364746 67.56615234 -35.34643555 67.21386719 C-39.68615494 65.98539082 -43.87493796 65.97102588 -48.359375 65.9765625 C-50.1002671 65.95629555 -51.84115249 65.93544523 -53.58203125 65.9140625 C-56.30328102 65.89137309 -59.02426505 65.87494822 -61.74560547 65.86914062 C-64.38817161 65.85965035 -67.02956951 65.82594756 -69.671875 65.7890625 C-70.89532623 65.79663071 -70.89532623 65.79663071 -72.14349365 65.80435181 C-77.77253067 65.70585525 -77.77253067 65.70585525 -80.21313477 63.37573242 C-81.41037262 60.92121159 -82.49103441 58.50129759 -83.4375 55.9375 C-83.78167969 55.03386719 -84.12585938 54.13023437 -84.48046875 53.19921875 C-85.36891814 49.79424775 -85.30085779 46.75608936 -85.25 43.25 C-84.61852554 43.24191315 -83.98705109 43.23382629 -83.33644104 43.22549438 C-76.73329347 43.13909148 -70.13043382 43.03957426 -63.52758789 42.93261719 C-61.0670253 42.8944564 -58.60640938 42.85958157 -56.14575195 42.828125 C-52.59827683 42.7821937 -49.05116481 42.72424573 -45.50390625 42.6640625 C-44.4129213 42.65251129 -43.32193634 42.64096008 -42.19789124 42.62905884 C-31.40978318 42.64322315 -31.40978318 42.64322315 -21.875 38.375 C-21.070625 37.323125 -21.070625 37.323125 -20.25 36.25 C-19.693125 35.54875 -19.13625 34.8475 -18.5625 34.125 C-15.94547555 30.38639365 -15.95045864 27.81800574 -16.25 23.25 C-18.13641052 16.81401117 -20.89509402 14.78625867 -26.25 11.25 C-26.25 10.59 -26.25 9.93 -26.25 9.25 C-28.56 8.92 -30.87 8.59 -33.25 8.25 C-33.745 6.765 -33.745 6.765 -34.25 5.25 C-22.9455948 1.10505143 -12.00155876 -0.09747717 0 0 Z " fill="#FBFCFC" transform="translate(270.25,131.75)"/>
<path d="M0 0 C3.10739156 0.074146 4.15504531 1.147531 6.41796875 3.30078125 C7.34366624 4.30236392 8.26665874 5.30645077 9.1875 6.3125 C33.80589764 31.91578743 69.83883709 45.50112682 103 56 C103.70286133 56.22574707 104.40572266 56.45149414 105.12988281 56.68408203 C122.57738426 62.20600901 140.78573616 64.68703986 159 66 C159.27519934 92.66893302 159.01202667 118.82402466 154.72265625 145.22265625 C153.8005948 151.03272536 153.23848196 156.8764465 152.734375 162.73608398 C152.3266326 167.11787235 151.47933994 170.82792893 150 175 C149.59169056 176.84952047 149.18548046 178.69968005 148.80883789 180.5559082 C147.00114714 189.43770221 144.62596959 198.12105457 142.0625 206.8125 C141.73878418 207.92004639 141.41506836 209.02759277 141.08154297 210.16870117 C137.96221642 220.59406327 134.37126973 230.78604945 129.3125 240.4375 C127.15255778 244.57060452 125.36642071 248.53725651 124 253 C123.34 253 122.68 253 122 253 C121.77054687 253.81726563 121.54109375 254.63453125 121.3046875 255.4765625 C119.70702682 259.79120301 117.53911957 263.47260902 115.125 267.375 C114.6417627 268.15939453 114.15852539 268.94378906 113.66064453 269.75195312 C106.16952232 281.71657234 97.63755883 292.69169531 88 303 C86.56090833 304.6235906 85.12344464 306.24862543 83.6875 307.875 C80.20036725 311.74620506 76.61123519 315.49464586 72.9375 319.1875 C72.46723389 319.6623584 71.99696777 320.1372168 71.51245117 320.62646484 C53.65545719 338.40684567 32.5552841 352.56428754 10.73730469 364.97607422 C9.2642654 365.8442483 7.84687733 366.80577532 6.4453125 367.78515625 C2.97199958 369.51071586 0.85424749 369.50586998 -3 369 C-6.18249815 367.66210622 -9.06432007 365.93309357 -12 364.125 C-13.25067261 363.37452393 -13.25067261 363.37452393 -14.52661133 362.60888672 C-17.03119214 361.09326478 -19.51802402 359.55231158 -22 358 C-22.68755371 357.57332031 -23.37510742 357.14664062 -24.08349609 356.70703125 C-37.20864397 348.49093463 -49.20761894 338.70669225 -60.5859375 328.22265625 C-62.32109311 326.62507771 -64.07924045 325.05233818 -65.8515625 323.49609375 C-73.66645351 316.60000282 -80.42977571 309.08036912 -87 301 C-87.71784668 300.11924805 -87.71784668 300.11924805 -88.45019531 299.22070312 C-97.14238021 288.49619415 -105.1801776 277.45467605 -112 265.4375 C-112.38623535 264.7583252 -112.7724707 264.07915039 -113.17041016 263.37939453 C-114.89201577 260.27645542 -116.24267031 257.46147003 -117 254 C-117.66 254 -118.32 254 -119 254 C-119.37511719 253.11699219 -119.75023437 252.23398437 -120.13671875 251.32421875 C-120.64847656 250.12410156 -121.16023438 248.92398438 -121.6875 247.6875 C-121.96005615 247.0473999 -122.2326123 246.4072998 -122.51342773 245.74780273 C-124.12480229 241.98198331 -125.80685634 238.26388887 -127.5625 234.5625 C-130.30164129 228.56953801 -132.33812742 222.37424465 -134.32763672 216.10253906 C-135.02730141 213.91462608 -135.74867003 211.73466425 -136.47265625 209.5546875 C-141.4198076 194.50055515 -145.66016621 179.16432251 -147.54296875 163.3984375 C-147.90871618 160.67877709 -148.38479823 158.05805184 -148.921875 155.37109375 C-150.38616489 147.44954755 -151.05052182 139.43583564 -151.80493164 131.42211914 C-152.06099837 128.70344294 -152.32383692 125.98548905 -152.58789062 123.26757812 C-154.00919673 108.53127187 -155.16443173 93.94430554 -155.0625 79.125 C-155.05798828 77.85269531 -155.05347656 76.58039063 -155.04882812 75.26953125 C-155.03721197 72.17963507 -155.02088167 69.08984503 -155 66 C-153.82308594 65.82984375 -152.64617187 65.6596875 -151.43359375 65.484375 C-145.95148146 64.68358537 -140.47543629 63.84508052 -135 63 C-134.04883301 62.85546387 -133.09766602 62.71092773 -132.11767578 62.56201172 C-119.11347155 60.55982989 -106.71337188 57.77377137 -94.19921875 53.70507812 C-92.1197279 53.03838523 -90.03358967 52.40909921 -87.9375 51.796875 C-86.761875 51.45140625 -85.58625 51.1059375 -84.375 50.75 C-83.37210937 50.45609375 -82.36921875 50.1621875 -81.3359375 49.859375 C-78.85091674 49.13057032 -78.85091674 49.13057032 -77 47 C-75.55829582 46.52900501 -74.09556133 46.12120966 -72.625 45.75 C-67.24318972 44.24027706 -62.56532631 41.86457666 -57.6640625 39.20703125 C-55 38 -55 38 -51 38 C-51 37.34 -51 36.68 -51 36 C-49.329375 35.10861328 -49.329375 35.10861328 -47.625 34.19921875 C-30.19131837 24.78283678 -14.07378475 14.07378475 0 0 Z M-1.6640625 10.546875 C-2.31117188 11.27390625 -2.95828125 12.0009375 -3.625 12.75 C-8.64244093 17.99247566 -14.3309256 21.949286 -20.32275391 26.01269531 C-21.04124512 26.5022168 -21.75973633 26.99173828 -22.5 27.49609375 C-23.1496875 27.93107178 -23.799375 28.3660498 -24.46875 28.81420898 C-26.15030323 29.93947347 -26.15030323 29.93947347 -27 32 C-28.61854232 32.70811227 -30.24048582 33.40949428 -31.87890625 34.0703125 C-35.7347001 35.76032896 -39.35168693 37.90697685 -43 40 C-43 40.66 -43 41.32 -43 42 C-44.2375 42.37125 -45.475 42.7425 -46.75 43.125 C-51.78048579 44.79391903 -56.36978012 47.10482749 -61.08203125 49.51171875 C-67.25620514 52.66079539 -72.96617547 55.16040112 -79.77734375 56.515625 C-82.69727794 57.15195512 -85.45565746 58.10272727 -88.27734375 59.078125 C-91.87579597 60.29653924 -95.49860729 61.43042071 -99.125 62.5625 C-100.12865601 62.87731323 -100.12865601 62.87731323 -101.15258789 63.19848633 C-102.47252235 63.61036577 -103.79365944 64.0184108 -105.1159668 64.42260742 C-106.81919917 64.94459065 -108.51736137 65.48304821 -110.21484375 66.0234375 C-115.56795838 67.40453003 -120.97730245 68.21926339 -126.4375 69.0625 C-127.53126953 69.23587891 -128.62503906 69.40925781 -129.75195312 69.58789062 C-135.49295132 70.48999811 -141.23190922 71.29409167 -147 72 C-147.50772724 98.52497494 -147.50772724 98.52497494 -145.41992188 124.92626953 C-144.98345561 128.12110107 -144.57425427 131.318668 -144.16767883 134.51741028 C-143.64191583 138.6378257 -143.10274137 142.75646176 -142.5625 146.875 C-142.45926422 147.66800507 -142.35602844 148.46101013 -142.24966431 149.27804565 C-141.0778629 158.20723025 -139.69045829 166.98209593 -137.69555664 175.77270508 C-137.02831692 178.86861306 -136.52172821 181.95048629 -136.0546875 185.08203125 C-135.02297132 191.49462596 -133.15641045 197.5290791 -131.125 203.6875 C-130.78597656 204.75033203 -130.44695312 205.81316406 -130.09765625 206.90820312 C-128.29860675 212.45242221 -126.31297426 217.79300714 -123.87060547 223.08520508 C-122.7679601 225.51034463 -121.87005288 227.98306132 -121 230.5 C-117.61361461 239.91675629 -113.20943833 248.39554519 -108.15039062 257.02294922 C-106.95326037 259.0803263 -105.78013981 261.15017557 -104.609375 263.22265625 C-99.37587654 272.41369615 -93.75107343 280.84790276 -87 289 C-86.53916016 289.55703613 -86.07832031 290.11407227 -85.60351562 290.68798828 C-82.44089849 294.49240528 -79.22705771 298.25017905 -76 302 C-75.41992188 302.69351562 -74.83984375 303.38703125 -74.2421875 304.1015625 C-65.20087689 314.77848709 -55.00784917 324.39172771 -44 333 C-43.21625 333.65097656 -42.4325 334.30195313 -41.625 334.97265625 C-35.48364454 340.05341578 -28.98355621 344.44653901 -22.3203125 348.80078125 C-19 351 -19 351 -16.8046875 352.79296875 C-14.80770963 354.37063011 -14.80770963 354.37063011 -11 354 C-11 354.66 -11 355.32 -11 356 C-5.30323882 359.31447923 -0.61616479 361.62676316 6 360 C10.91872415 357.71441321 15.44825116 354.93792387 20 352 C21.04929687 351.3296875 22.09859375 350.659375 23.1796875 349.96875 C36.78868841 341.06104032 49.52951603 331.20599009 61.5390625 320.23828125 C63.16422249 318.76015954 64.80473906 317.29872739 66.4609375 315.85546875 C85.82745308 298.90213098 103.91285826 276.25910023 115 253 C115 252.34 115 251.68 115 251 C115.66 251 116.32 251 117 251 C117.37125 250.113125 117.7425 249.22625 118.125 248.3125 C119.65330746 244.73437732 121.29149366 241.21287054 122.9375 237.6875 C134.39022945 212.86856295 141.78472909 185.9831036 146 159 C146.1232666 158.23220215 146.2465332 157.4644043 146.37353516 156.67333984 C150.8231053 128.52199036 151.29149456 100.42071934 151 72 C141.1 71.01 131.2 70.02 121 69 C121 68.34 121 67.68 121 67 C120.19304687 66.89945313 119.38609375 66.79890625 118.5546875 66.6953125 C76.88244829 60.2365578 35.09330779 39.26664344 4 11 C3.67 10.34 3.34 9.68 3 9 C-0.01245156 8.65957666 -0.01245156 8.65957666 -1.6640625 10.546875 Z " fill="#E9ECEE" transform="translate(277,37)"/>
<path d="M0 0 C4.62 0 9.24 0 14 0 C14.73863281 1.44890625 15.47726563 2.8978125 16.23828125 4.390625 C25.06268368 21.3614199 33.9427606 32.66807323 50.20166016 42.85058594 C52.93356218 44.59668894 55.56136439 46.47464553 58.1875 48.375 C59.44626953 49.28378906 59.44626953 49.28378906 60.73046875 50.2109375 C61.47941406 50.80132812 62.22835937 51.39171875 63 52 C63.71285156 52.55300781 64.42570312 53.10601562 65.16015625 53.67578125 C67.85720736 57.08288404 68.41661349 60.60799673 69.25 64.8125 C69.42273438 65.59431641 69.59546875 66.37613281 69.7734375 67.18164062 C70.76287762 71.88148119 71.17940868 76.20081788 71 81 C66.50127254 79.55013388 63.41064682 77.02714145 59.9375 73.9375 C52.8634952 67.79735722 45.58658935 61.97228442 37.71484375 56.87109375 C35 55 35 55 34 53 C33.01 52.484375 32.02 51.96875 31 51.4375 C17.30021098 43.81716746 7.74924856 27.81160553 2.75 13.375 C2.3478125 12.26898438 2.3478125 12.26898438 1.9375 11.140625 C1.68484375 10.42132813 1.4321875 9.70203125 1.171875 8.9609375 C0.9459668 8.31946777 0.72005859 7.67799805 0.48730469 7.01708984 C0 5 0 5 0 0 Z " fill="#F3F5F6" transform="translate(189,204)"/>
<path d="M0 0 C4.95 0 9.9 0 15 0 C13.87360275 7.88478074 13.87360275 7.88478074 12.1875 11.875 C11.83558594 12.71546875 11.48367188 13.5559375 11.12109375 14.421875 C9.43803022 18.29233468 7.74510779 22.15704987 6 26 C5.34 26 4.68 26 4 26 C3.7525 26.87914062 3.505 27.75828125 3.25 28.6640625 C-2.12089859 42.99764811 -17.71686213 51.55510014 -29.66625977 59.85107422 C-38.0534697 65.68832655 -45.90969225 71.90451132 -53.50390625 78.75 C-55 80 -55 80 -56 80 C-56.39505749 69.92603399 -56.0828846 58.79782365 -49 51 C-43.45750863 45.74763904 -37.45936694 42.07182671 -30.73046875 38.55078125 C-15.13214854 29.69164946 -6.83499606 16.03595228 0 0 Z " fill="#F6F7F8" transform="translate(354,204)"/>
<path d="M0 0 C0.66 0.33 1.32 0.66 2 1 C1.51789063 1.53109375 1.03578125 2.0621875 0.5390625 2.609375 C-0.09257812 3.31578125 -0.72421875 4.0221875 -1.375 4.75 C-2.00148438 5.44609375 -2.62796875 6.1421875 -3.2734375 6.859375 C-6.28483988 10.5929689 -7.24825205 13.47785927 -7.625 18.25 C-7.73714844 19.58804688 -7.73714844 19.58804688 -7.8515625 20.953125 C-7.90054687 21.62859375 -7.94953125 22.3040625 -8 23 C-10.81255534 18.781167 -9.87005858 15.81944212 -9 11 C-7.77245153 5.72154158 -4.11113799 3.19877314 0 0 Z " fill="#4B4D6B" transform="translate(312,142)"/>
<path d="M0 0 C0.33 0 0.66 0 1 0 C1.32340271 6.46805417 0.43392497 11.69470606 -1.2734375 17.92578125 C-2.2018634 21.85412094 -2.49642198 25.69888998 -2.69140625 29.72265625 C-3 32 -3 32 -5 35 C-3.23140052 11.41761516 -3.23140052 11.41761516 0 0 Z " fill="#62657E" transform="translate(296,247)"/>
<path d="M0 0 C0.33 0 0.66 0 1 0 C1.10103455 5.60741736 0.76082036 10.94806761 0 16.5 C-0.09539062 17.22703125 -0.19078125 17.9540625 -0.2890625 18.703125 C-0.52146167 20.46935867 -0.76006638 22.23477406 -1 24 C-2.32 23.67 -3.64 23.34 -5 23 C-5.95261487 18.23692563 -6.08333357 13.8333472 -6 9 C-5.67 9 -5.34 9 -5 9 C-4.34 12.63 -3.68 16.26 -3 20 C-2.01 13.4 -1.02 6.8 0 0 Z " fill="#464A67" transform="translate(281,344)"/>
<path d="M0 0 C1.51389508 4.8635534 0.45553932 9.24911143 -0.3125 14.1875 C-0.44333984 15.11498047 -0.57417969 16.04246094 -0.70898438 16.99804688 C-0.84240234 17.87912109 -0.97582031 18.76019531 -1.11328125 19.66796875 C-1.23485596 20.47516357 -1.35643066 21.2823584 -1.48168945 22.11401367 C-1.65273193 22.73638916 -1.82377441 23.35876465 -2 24 C-2.66 24.33 -3.32 24.66 -4 25 C-4.33 21.04 -4.66 17.08 -5 13 C-4.67 13.66 -4.34 14.32 -4 15 C-3.34 15 -2.68 15 -2 15 C-1.93941406 14.16855469 -1.87882812 13.33710938 -1.81640625 12.48046875 C-1.73261719 11.39378906 -1.64882813 10.30710937 -1.5625 9.1875 C-1.48128906 8.10855469 -1.40007812 7.02960938 -1.31640625 5.91796875 C-1 3 -1 3 0 0 Z " fill="#CDD4D8" transform="translate(281,340)"/>
<path d="M0 0 C4.95 0 9.9 0 15 0 C14.67 2.31 14.34 4.62 14 7 C13.67 7 13.34 7 13 7 C13 5.35 13 3.7 13 2 C8.71 2 4.42 2 0 2 C0 2.99 0 3.98 0 5 C-0.66 5 -1.32 5 -2 5 C-1.34 3.35 -0.68 1.7 0 0 Z " fill="#B1B7C0" transform="translate(354,204)"/>
<path d="M0 0 C0.33 0 0.66 0 1 0 C1 5.61 1 11.22 1 17 C0.34 17 -0.32 17 -1 17 C-1 18.98 -1 20.96 -1 23 C-1.33 23 -1.66 23 -2 23 C-2.31732638 15.22550376 -1.11855299 7.67007765 0 0 Z " fill="#62657E" transform="translate(432,172)"/>
<path d="M0 0 C0.33 0 0.66 0 1 0 C1.13277344 0.74765625 1.26554687 1.4953125 1.40234375 2.265625 C1.57894531 3.25046875 1.75554687 4.2353125 1.9375 5.25 C2.19853516 6.71179688 2.19853516 6.71179688 2.46484375 8.203125 C2.90379729 10.49721795 3.40348592 12.74291971 4 15 C3.01 14.67 2.02 14.34 1 14 C0.04738513 9.23692563 -0.08333357 4.8333472 0 0 Z " fill="#818D99" transform="translate(275,353)"/>
<path d="M0 0 C0.33 0 0.66 0 1 0 C1.33 1.65 1.66 3.3 2 5 C3.32 3.68 4.64 2.36 6 1 C6.66 1.33 7.32 1.66 8 2 C4.55384615 6.8 4.55384615 6.8 1.75 7.8125 C0.88375 7.9053125 0.88375 7.9053125 0 8 C0 5.36 0 2.72 0 0 Z " fill="#6C7086" transform="translate(297,278)"/>
<path d="M0 0 C-0.99 1.485 -0.99 1.485 -2 3 C-3.65 2.67 -5.3 2.34 -7 2 C-7 1.34 -7 0.68 -7 0 C-3.86650268 -1.04449911 -3.01031744 -0.93423645 0 0 Z " fill="#CAD2D5" transform="translate(243,137)"/>
<path d="M0 0 C-6.4 4.06153846 -6.4 4.06153846 -9.4375 3.75 C-9.953125 3.5025 -10.46875 3.255 -11 3 C-3.53658537 -1.76829268 -3.53658537 -1.76829268 0 0 Z " fill="#A2A7B4" transform="translate(206,84)"/>
</svg>
